<svg xmlns="http://www.w3.org/2000/svg"  viewBox="0 0 64 64" width="64px" height="64px"><linearGradient id="L1dRWET6jBuVydSKT60Pda" x1="35.647" x2="35.647" y1="48.745" y2="53.558" gradientUnits="userSpaceOnUse"><stop offset="0" stop-color="#6dc7ff"/><stop offset="1" stop-color="#e6abff"/></linearGradient><path fill="url(#L1dRWET6jBuVydSKT60Pda)" d="M31.798,51.601L28,43.209l6.862,4.239l4.851-1.384L43.294,41l-4.798,10.601	C37.192,54.481,33.102,54.481,31.798,51.601z"/><linearGradient id="L1dRWET6jBuVydSKT60Pdb" x1="39.493" x2="39.493" y1="21.085" y2="23.855" gradientUnits="userSpaceOnUse"><stop offset="0" stop-color="#6dc7ff"/><stop offset="1" stop-color="#e6abff"/></linearGradient><path fill="url(#L1dRWET6jBuVydSKT60Pdb)" d="M39.493,21.01c-0.809,0-1.465,0.655-1.465,1.464c0,0.809,0.655,1.465,1.464,1.466h0.001	c0.809,0,1.465-0.655,1.465-1.464C40.958,21.668,40.303,21.011,39.493,21.01L39.493,21.01z"/><linearGradient id="L1dRWET6jBuVydSKT60Pdc" x1="27.452" x2="27.452" y1="20.894" y2="23.897" gradientUnits="userSpaceOnUse"><stop offset="0" stop-color="#6dc7ff"/><stop offset="1" stop-color="#e6abff"/></linearGradient><path fill="url(#L1dRWET6jBuVydSKT60Pdc)" d="M27.452,21.01c-0.809,0-1.465,0.655-1.465,1.464c0,0.809,0.655,1.465,1.464,1.466h0.001	c0.809,0,1.465-0.655,1.465-1.464C28.917,21.668,28.261,21.011,27.452,21.01L27.452,21.01z"/><linearGradient id="L1dRWET6jBuVydSKT60Pdd" x1="31.98" x2="31.98" y1="7.128" y2="52.958" gradientUnits="userSpaceOnUse"><stop offset="0" stop-color="#1a6dff"/><stop offset="1" stop-color="#c822ff"/></linearGradient><path fill="url(#L1dRWET6jBuVydSKT60Pdd)" d="M31.98,28.983c0.542,0,0.981-0.439,0.981-0.981s-0.44-0.981-0.981-0.981 c-0.541,0-0.981,0.439-0.981,0.981S31.439,28.983,31.98,28.983z"/><linearGradient id="L1dRWET6jBuVydSKT60Pde" x1="35.981" x2="35.981" y1="7.128" y2="52.958" gradientUnits="userSpaceOnUse"><stop offset="0" stop-color="#1a6dff"/><stop offset="1" stop-color="#c822ff"/></linearGradient><circle cx="35.981" cy="28.002" r=".981" fill="url(#L1dRWET6jBuVydSKT60Pde)"/><linearGradient id="L1dRWET6jBuVydSKT60Pdf" x1="32.016" x2="32.016" y1="7.128" y2="52.958" gradientUnits="userSpaceOnUse"><stop offset="0" stop-color="#1a6dff"/><stop offset="1" stop-color="#c822ff"/></linearGradient><path fill="url(#L1dRWET6jBuVydSKT60Pdf)" d="M54.684,26.733l-2.791-9.768C51.562,15.809,50.489,15,49.286,15 c-0.17,0-0.338,0.022-0.503,0.053c-0.748-1.653-1.782-3.183-3.104-4.509C42.76,7.614,38.87,6,34.728,6 c-4.491,0-8.568,1.629-11.481,4.587c-1.328,1.348-2.339,2.908-3.031,4.626c-0.356-0.094-0.724-0.144-1.096-0.144 c-2.271,0-4.119,1.778-4.119,3.964v7.305c0,3.158,1.09,6.292,3.067,8.822c0.812,1.039,1.456,2.187,1.94,3.393 C13.588,40.327,9,46.276,9,53v5h2v-5c0-5.856,4.014-11.033,9.619-12.543C20.865,41.481,21,42.53,21,43.582V58h2V43.582 c0-3.455-1.192-6.884-3.356-9.654C17.938,31.747,17,29.051,17,26.337v-7.305c0-1.083,0.95-1.964,2.119-1.964 c0.164,0,0.324,0.026,0.482,0.06c-0.325,1.308-0.492,2.685-0.47,4.126c0.107,7.055,2.78,10.056,5.139,12.702 c1.344,1.51,2.618,2.963,3.373,5.104l-0.629,3.775L27,58h2V43.825c1.305,3.167,3.507,4.623,6.889,4.623 c2.169,0,3.967-0.738,5.3-2.104V58h2V43h-0.056c0.187-0.574,0.339-1.185,0.445-1.841c0.521-3.211,1.756-5.505,3.063-7.933 c1.715-3.188,3.488-6.483,3.506-11.843c0.005-1.472-0.205-2.911-0.602-4.289c0.194,0.076,0.365,0.21,0.424,0.42l2.791,9.768 c0.482,1.689,0.315,3.483-0.446,5.011l-4.415,7.847C47.311,41.187,47,42.373,47,43.572V58h2V43.572 c0-0.856,0.222-1.705,0.642-2.452l4.438-7.89C55.089,31.212,55.304,28.904,54.684,26.733z M48.146,21.377 c-0.016,4.859-1.595,7.795-3.268,10.901c-1.327,2.467-2.699,5.018-3.275,8.56c-0.589,3.618-2.618,5.61-5.715,5.61 c-2.79,0-4.851-1.049-5.84-6.167c-0.7-3.629-2.523-5.675-4.286-7.654c-2.333-2.618-4.536-5.092-4.632-11.403 c-0.056-3.633,1.169-6.826,3.54-9.233C27.205,9.417,30.776,8,34.728,8c3.606,0,6.993,1.405,9.536,3.956 C46.779,14.481,48.159,17.826,48.146,21.377L48.146,21.377z"/><linearGradient id="L1dRWET6jBuVydSKT60Pdg" x1="35" x2="35" y1="7.128" y2="52.958" gradientUnits="userSpaceOnUse"><stop offset="0" stop-color="#1a6dff"/><stop offset="1" stop-color="#c822ff"/></linearGradient><path fill="url(#L1dRWET6jBuVydSKT60Pdg)" d="M37.479,32.861c-0.838-0.662-1.887-0.956-2.945-0.834c-1.062,0.124-2.011,0.654-2.673,1.493 c-0.662,0.838-0.959,1.885-0.834,2.945c0.124,1.062,0.654,2.011,1.493,2.673c0.713,0.563,1.576,0.862,2.471,0.862 c0.157,0,0.316-0.01,0.475-0.028c1.062-0.124,2.011-0.654,2.673-1.493c0.662-0.838,0.959-1.885,0.834-2.945 C38.849,34.473,38.318,33.523,37.479,32.861z M36.569,37.24c-0.331,0.419-0.806,0.684-1.336,0.746h-0.001 c-0.532,0.064-1.054-0.087-1.473-0.417c-0.419-0.331-0.684-0.806-0.746-1.337c-0.063-0.53,0.086-1.053,0.417-1.473 c0.331-0.419,0.806-0.684,1.337-0.746C34.847,34.004,34.926,34,35.004,34c0.448,0,0.88,0.149,1.236,0.431 c0.419,0.331,0.684,0.806,0.746,1.337C37.049,36.298,36.9,36.82,36.569,37.24z"/></svg>