<svg fill="#000000" xmlns="http://www.w3.org/2000/svg"  viewBox="0 0 32 32" width="32px" height="32px"><path d="M 17.5625 2 C 14.113281 2 10.972656 3.914063 9.65625 7 L 8 7 L 8 14.3125 L 8.1875 14.59375 C 8.203125 14.613281 8.234375 14.632813 8.25 14.65625 C 9.152344 15.917969 10.300781 17.792969 10.78125 19.0625 C 9.210938 19.253906 7.65625 19.859375 6.4375 21.125 C 4.902344 22.71875 4 25.257813 4 29 L 6 29 C 6 25.574219 6.804688 23.613281 7.875 22.5 C 8.683594 21.65625 9.695313 21.21875 10.84375 21.0625 C 10.457031 22.886719 9.453125 26.296875 9 29 L 11.03125 29 C 11.613281 26.496094 12.625 22.835938 12.90625 20.84375 C 12.949219 20.9375 12.992188 21.019531 13 21.0625 L 13 29 L 15 29 L 15 23.6875 C 15.082031 23.78125 15.160156 23.882813 15.25 23.96875 C 16.0625 24.722656 17.125 25 18.15625 25 C 19.207031 25 20.214844 24.652344 21 23.96875 L 21 29 L 23 29 L 23 23.46875 C 23.640625 25.296875 24.421875 27.398438 24.90625 29 L 27 29 C 26.070313 25.9375 24.101563 21.148438 24 20 C 24 19.117188 25.457031 16.484375 26.8125 14.5625 L 27 14.3125 L 27 7 L 25.25 7 C 23.925781 4.0625 20.980469 2 17.5625 2 Z M 17.5625 4 C 21.136719 4 24.011719 6.890625 24 10.46875 C 23.992188 12.628906 23.398438 13.925781 22.65625 15.34375 C 21.914063 16.761719 20.980469 18.292969 20.625 20.5 C 20.46875 21.460938 20.125 22.0625 19.71875 22.4375 C 19.3125 22.8125 18.828125 23 18.15625 23 C 17.425781 23 16.96875 22.878906 16.59375 22.53125 C 16.21875 22.183594 15.84375 21.480469 15.59375 20.1875 C 15.140625 17.84375 13.796875 16.628906 12.8125 15.46875 C 11.828125 14.308594 11.042969 13.183594 11 10.375 C 10.941406 6.394531 13.914063 4 17.5625 4 Z M 14 10 C 13.449219 10 13 10.449219 13 11 C 13 11.550781 13.449219 12 14 12 C 14.550781 12 15 11.550781 15 11 C 15 10.449219 14.550781 10 14 10 Z M 20 10 C 19.449219 10 19 10.449219 19 11 C 19 11.550781 19.449219 12 20 12 C 20.550781 12 21 11.550781 21 11 C 21 10.449219 20.550781 10 20 10 Z M 15.5 13 C 15.222656 13 15 13.222656 15 13.5 C 15 13.777344 15.222656 14 15.5 14 C 15.777344 14 16 13.777344 16 13.5 C 16 13.222656 15.777344 13 15.5 13 Z M 17.5 13 C 17.222656 13 17 13.222656 17 13.5 C 17 13.777344 17.222656 14 17.5 14 C 17.777344 14 18 13.777344 18 13.5 C 18 13.222656 17.777344 13 17.5 13 Z M 17 16 C 16.222656 16 15.910156 16.957031 16.03125 18.5625 C 16.160156 20.285156 16.945313 21 17.71875 21 C 18.492188 21 19.078125 20.292969 19 18.6875 C 18.929688 17.253906 17.777344 16 17 16 Z"/></svg>