<svg width="120" height="67" version="1.1" xmlns="http://www.w3.org/2000/svg" desc="Created with imagetracer.js version 1.2.6" ><path fill="rgb(255,255,255)" stroke="rgb(255,255,255)" stroke-width="1" opacity="0" d="M 0 0 L 120 0 L 120 67 L 0 67 L 0 0 Z M 9 14 L 9 27 L 17 27 L 17 14 Q 14 14 14 15 L 14 24 L 12 24 L 12 14 L 9 14 Z M 18 14 L 18 27 L 34 27 L 36 25 L 35 27 L 52 27 Q 53 24 51 24 L 52 23 L 52 14 L 47 14 L 45 16 L 45 15 L 18 14 Z M 54 23 L 54 29 L 65 29 L 65 23 L 59 23 L 58 25 L 57 25 L 57 23 L 54 23 Z M 2 31 L 2 53 L 75 53 L 76 52 L 77 53 L 118 53 L 116 48 L 116 45 L 118 45 L 118 31 L 86 31 L 85 32 L 84 31 L 2 31 Z " /><path fill="rgb(255,255,255)" stroke="rgb(255,255,255)" stroke-width="1" opacity="0" d="M 21.5 22 L 21.5 23 L 21.5 22 Z " /><path fill="rgb(255,255,255)" stroke="rgb(255,255,255)" stroke-width="1" opacity="0" d="M 66.5 39 L 66.5 40 L 66.5 39 Z " /><path fill="rgb(255,255,255)" stroke="rgb(255,255,255)" stroke-width="1" opacity="0" d="M 104.5 39 L 104.5 40 L 104.5 39 Z " /><path fill="rgb(255,255,255)" stroke="rgb(255,255,255)" stroke-width="1" opacity="0" d="M 12.5 44 L 12.5 45 L 12.5 44 Z " /><path fill="rgb(255,255,255)" stroke="rgb(255,255,255)" stroke-width="1" opacity="0" d="M 111.5 46 L 111.5 47 L 111.5 46 Z " /><path fill="rgb(255,255,255)" stroke="rgb(255,255,255)" stroke-width="1" opacity="0" d="M 93.5 50 Q 95 51 92.5 52 Q 91 51 93.5 50 Z " /><path fill="rgb(255,255,255)" stroke="rgb(255,255,255)" stroke-width="1" opacity="0.4470588235294118" d="M 18.5 14 L 19 26.5 L 18 26.5 L 18.5 14 Z " /><path fill="rgb(255,255,255)" stroke="rgb(255,255,255)" stroke-width="1" opacity="0.4470588235294118" d="M 33.5 14 Q 36 15 34.5 16 Q 32 15 33.5 14 Z " /><path fill="rgb(255,255,255)" stroke="rgb(255,255,255)" stroke-width="1" opacity="0.4470588235294118" d="M 44.5 16 L 45 26.5 L 44 26.5 L 44.5 16 Z " /><path fill="rgb(255,255,255)" stroke="rgb(255,255,255)" stroke-width="1" opacity="0.4470588235294118" d="M 30.5 17 L 31.5 24 L 32.5 17 L 33 23.5 Q 31.5 26.5 30 23.5 L 30.5 17 Z " /><path fill="rgb(255,255,255)" stroke="rgb(255,255,255)" stroke-width="1" opacity="0.4470588235294118" d="M 39.5 17 L 40 18.5 L 39 18.5 L 39.5 17 Z " /><path fill="rgb(255,255,255)" stroke="rgb(255,255,255)" stroke-width="1" opacity="0.4470588235294118" d="M 21.5 21 L 21.5 22 L 21.5 21 Z " /><path fill="rgb(255,255,255)" stroke="rgb(255,255,255)" stroke-width="1" opacity="0.4470588235294118" d="M 40.5 21 L 43 21.5 L 40 22 Q 38.75 25 42.5 24 L 42.5 25 Q 39.5 25.5 39 23.5 L 40.5 21 Z " /><path fill="rgb(255,255,255)" stroke="rgb(255,255,255)" stroke-width="1" opacity="0.4470588235294118" d="M 47.5 22 L 47.5 23 L 47.5 22 Z " /><path fill="rgb(255,255,255)" stroke="rgb(255,255,255)" stroke-width="1" opacity="0.4470588235294118" d="M 54 23 L 57 23 L 57 24.5 L 54 24.5 L 54 23 Z " /><path fill="rgb(255,255,255)" stroke="rgb(255,255,255)" stroke-width="1" opacity="0.4470588235294118" d="M 60.5 23 Q 61.5 25 62.5 23 Q 65.5 22.12 64 26.5 L 63 26.5 L 62.5 24 L 61.5 29 L 61 24.5 L 60.5 23 Z " /><path fill="rgb(255,255,255)" stroke="rgb(255,255,255)" stroke-width="1" opacity="0.4470588235294118" d="M 12.5 24 L 14 24.5 L 12.5 25 L 12.5 24 Z " /><path fill="rgb(255,255,255)" stroke="rgb(255,255,255)" stroke-width="1" opacity="0.4470588235294118" d="M 51.5 24 L 51.5 25 L 51.5 24 Z " /><path fill="rgb(255,255,255)" stroke="rgb(255,255,255)" stroke-width="1" opacity="0.4470588235294118" d="M 59.5 25 L 59.5 26 L 59.5 25 Z " /><path fill="rgb(255,255,255)" stroke="rgb(255,255,255)" stroke-width="1" opacity="0.4470588235294118" d="M 19.5 31 L 20 52.5 L 19 52.5 L 19.5 31 Z " /><path fill="rgb(255,255,255)" stroke="rgb(255,255,255)" stroke-width="1" opacity="0.4470588235294118" d="M 24.5 31 L 24.5 32 L 24.5 31 Z " /><path fill="rgb(255,255,255)" stroke="rgb(255,255,255)" stroke-width="1" opacity="0.4470588235294118" d="M 48.5 31 L 49 48.5 L 48 48.5 L 48.5 31 Z " /><path fill="rgb(255,255,255)" stroke="rgb(255,255,255)" stroke-width="1" opacity="0.4470588235294118" d="M 55.5 31 L 56 52.5 L 55 52.5 L 55.5 31 Z " /><path fill="rgb(255,255,255)" stroke="rgb(255,255,255)" stroke-width="1" opacity="0.4470588235294118" d="M 66.5 31 L 67 34.5 Q 65.81 37 62 36 L 61.5 39 L 61 36.5 Q 62.19 34 66 35 L 66.5 31 Z " /><path fill="rgb(255,255,255)" stroke="rgb(255,255,255)" stroke-width="1" opacity="0.4470588235294118" d="M 72.5 31 L 72.5 32 L 72.5 31 Z " /><path fill="rgb(255,255,255)" stroke="rgb(255,255,255)" stroke-width="1" opacity="0.4470588235294118" d="M 104.5 31 L 105 34.5 Q 103.81 37 100 36 L 99.5 39 L 99 36.5 Q 100.19 34 104 35 L 104.5 31 Z " /><path fill="rgb(255,255,255)" stroke="rgb(255,255,255)" stroke-width="1" opacity="0.4470588235294118" d="M 12.5 32 L 12.5 33 L 12.5 32 Z " /><path fill="rgb(255,255,255)" stroke="rgb(255,255,255)" stroke-width="1" opacity="0.4470588235294118" d="M 73.5 34 L 73.5 35 L 73.5 34 Z " /><path fill="rgb(255,255,255)" stroke="rgb(255,255,255)" stroke-width="1" opacity="0.4470588235294118" d="M 26.5 35 L 31 35.5 L 26.5 36 L 26.5 35 Z " /><path fill="rgb(255,255,255)" stroke="rgb(255,255,255)" stroke-width="1" opacity="0.4470588235294118" d="M 87.5 35 L 90 36.5 Q 88.75 40.25 92.5 39 L 92.5 40 Q 89.5 40.5 89 38.5 Q 90 34.75 87 36 L 86.5 49 L 86 36.5 L 87.5 35 Z " /><path fill="rgb(255,255,255)" stroke="rgb(255,255,255)" stroke-width="1" opacity="0.4470588235294118" d="M 111.5 35 L 114 36.5 L 113.5 41 L 113 36 Q 109.33 34.65 111 40.5 L 110 40.5 Q 109 36 111.5 35 Z " /><path fill="rgb(255,255,255)" stroke="rgb(255,255,255)" stroke-width="1" opacity="0.4470588235294118" d="M 2.5 36 L 6 36.5 L 2.5 37 L 2.5 36 Z " /><path fill="rgb(255,255,255)" stroke="rgb(255,255,255)" stroke-width="1" opacity="0.4470588235294118" d="M 74.5 37 L 74.5 38 L 74.5 37 Z " /><path fill="rgb(255,255,255)" stroke="rgb(255,255,255)" stroke-width="1" opacity="0.4470588235294118" d="M 14.5 39 L 14.5 40 L 14.5 39 Z " /><path fill="rgb(255,255,255)" stroke="rgb(255,255,255)" stroke-width="1" opacity="0.4470588235294118" d="M 30.5 40 L 31 43.5 L 30 43.5 L 30.5 40 Z " /><path fill="rgb(255,255,255)" stroke="rgb(255,255,255)" stroke-width="1" opacity="0.4470588235294118" d="M 72.5 42 L 72.5 43 L 72.5 42 Z " /><path fill="rgb(255,255,255)" stroke="rgb(255,255,255)" stroke-width="1" opacity="0.4470588235294118" d="M 61.5 44 L 62 48.5 L 61 48.5 L 61.5 44 Z " /><path fill="rgb(255,255,255)" stroke="rgb(255,255,255)" stroke-width="1" opacity="0.4470588235294118" d="M 99.5 44 L 100 48.5 L 99 48.5 L 99.5 44 Z " /><path fill="rgb(255,255,255)" stroke="rgb(255,255,255)" stroke-width="1" opacity="0.4470588235294118" d="M 110 45 L 112 45.5 L 111 46.5 L 110.5 53 L 110 45 Z " /><path fill="rgb(255,255,255)" stroke="rgb(255,255,255)" stroke-width="1" opacity="0.4470588235294118" d="M 13.5 46 L 13.5 47 L 13.5 46 Z " /><path fill="rgb(255,255,255)" stroke="rgb(255,255,255)" stroke-width="1" opacity="0.4470588235294118" d="M 89.5 46 L 90 48.5 L 89 48.5 L 89.5 46 Z " /><path fill="rgb(255,255,255)" stroke="rgb(255,255,255)" stroke-width="1" opacity="0.4470588235294118" d="M 112.5 48 L 112.5 49 L 112.5 48 Z " /><path fill="rgb(255,255,255)" stroke="rgb(255,255,255)" stroke-width="1" opacity="0.4470588235294118" d="M 14.5 49 L 14.5 50 L 14.5 49 Z " /><path fill="rgb(255,255,255)" stroke="rgb(255,255,255)" stroke-width="1" opacity="0.4470588235294118" d="M 42.5 49 L 43 52.5 L 42 52.5 L 42.5 49 Z " /><path fill="rgb(255,255,255)" stroke="rgb(255,255,255)" stroke-width="1" opacity="0.4470588235294118" d="M 75.5 51 L 75.5 52 L 75.5 51 Z " /><path fill="rgb(255,255,255)" stroke="rgb(255,255,255)" stroke-width="1" opacity="0.4470588235294118" d="M 113.5 52 L 113.5 53 L 113.5 52 Z " /><path fill="rgb(255,255,255)" stroke="rgb(255,255,255)" stroke-width="1" opacity="0.4470588235294118" d="M 117.5 52 L 117.5 53 L 117.5 52 Z " /><path fill="rgb(255,255,255)" stroke="rgb(255,255,255)" stroke-width="1" opacity="0.9333333333333333" d="M 21.5 16 L 21.5 17 L 21.5 16 Z " /><path fill="rgb(255,255,255)" stroke="rgb(255,255,255)" stroke-width="1" opacity="0.9333333333333333" d="M 30.5 16 L 30.5 17 L 30.5 16 Z " /><path fill="rgb(255,255,255)" stroke="rgb(255,255,255)" stroke-width="1" opacity="0.9333333333333333" d="M 32.5 16 L 32.5 17 L 32.5 16 Z " /><path fill="rgb(255,255,255)" stroke="rgb(255,255,255)" stroke-width="1" opacity="0.9333333333333333" d="M 39.5 16 L 39.5 17 L 39.5 16 Z " /><path fill="rgb(255,255,255)" stroke="rgb(255,255,255)" stroke-width="1" opacity="0.9333333333333333" d="M 49.5 16 L 49.5 17 L 49.5 16 Z " /><path fill="rgb(255,255,255)" stroke="rgb(255,255,255)" stroke-width="1" opacity="0.9333333333333333" d="M 39.5 19 L 39.5 20 L 39.5 19 Z " /><path fill="rgb(255,255,255)" stroke="rgb(255,255,255)" stroke-width="1" opacity="0.9333333333333333" d="M 23.5 21 Q 25 22 22.5 23 Q 21 22 23.5 21 Z " /><path fill="rgb(255,255,255)" stroke="rgb(255,255,255)" stroke-width="1" opacity="0.9333333333333333" d="M 48.5 22 L 48.5 23 L 48.5 22 Z " /><path fill="rgb(255,255,255)" stroke="rgb(255,255,255)" stroke-width="1" opacity="0.9333333333333333" d="M 50.5 23 L 50.5 24 L 50.5 23 Z " /><path fill="rgb(255,255,255)" stroke="rgb(255,255,255)" stroke-width="1" opacity="0.9333333333333333" d="M 55.5 24 L 56 28.5 L 55 28.5 L 55.5 24 Z " /><path fill="rgb(255,255,255)" stroke="rgb(255,255,255)" stroke-width="1" opacity="0.9333333333333333" d="M 58.5 24 L 59 28.5 L 58 28.5 L 58.5 24 Z " /><path fill="rgb(255,255,255)" stroke="rgb(255,255,255)" stroke-width="1" opacity="0.9333333333333333" d="M 62.5 24 L 64 28.5 L 62 29 L 62.5 24 Z " /><path fill="rgb(255,255,255)" stroke="rgb(255,255,255)" stroke-width="1" opacity="0.9333333333333333" d="M 23.5 25 L 23.5 26 L 23.5 25 Z " /><path fill="rgb(255,255,255)" stroke="rgb(255,255,255)" stroke-width="1" opacity="0.9333333333333333" d="M 49.5 25 L 49.5 26 L 49.5 25 Z " /><path fill="rgb(255,255,255)" stroke="rgb(255,255,255)" stroke-width="1" opacity="0.9333333333333333" d="M 72.5 32 L 72.5 33 L 72.5 32 Z " /><path fill="rgb(255,255,255)" stroke="rgb(255,255,255)" stroke-width="1" opacity="0.9333333333333333" d="M 23.5 33 L 23.5 34 L 23.5 33 Z " /><path fill="rgb(255,255,255)" stroke="rgb(255,255,255)" stroke-width="1" opacity="0.9333333333333333" d="M 13.5 37 L 13.5 38 L 13.5 37 Z " /><path fill="rgb(255,255,255)" stroke="rgb(255,255,255)" stroke-width="1" opacity="0.9333333333333333" d="M 12.5 41 L 12.5 42 L 12.5 41 Z " /><path fill="rgb(255,255,255)" stroke="rgb(255,255,255)" stroke-width="1" opacity="0.9333333333333333" d="M 75.5 42 Q 78 43 76.5 44 Q 74 43 75.5 42 Z " /><path fill="rgb(255,255,255)" stroke="rgb(255,255,255)" stroke-width="1" opacity="0.9333333333333333" d="M 15.5 43 L 15.5 44 L 15.5 43 Z " /><path fill="rgb(255,255,255)" stroke="rgb(255,255,255)" stroke-width="1" opacity="0.9333333333333333" d="M 61.5 43 L 61.5 44 L 61.5 43 Z " /><path fill="rgb(255,255,255)" stroke="rgb(255,255,255)" stroke-width="1" opacity="0.9333333333333333" d="M 99.5 43 L 99.5 44 L 99.5 43 Z " /><path fill="rgb(255,255,255)" stroke="rgb(255,255,255)" stroke-width="1" opacity="0.9333333333333333" d="M 74.5 46 L 74.5 47 L 74.5 46 Z " /><path fill="rgb(255,255,255)" stroke="rgb(255,255,255)" stroke-width="1" opacity="0.9333333333333333" d="M 115.5 47 L 115.5 48 L 115.5 47 Z " /><path fill="rgb(255,255,255)" stroke="rgb(255,255,255)" stroke-width="1" opacity="0.9333333333333333" d="M 75.5 49 L 75.5 50 L 75.5 49 Z " /><path fill="rgb(255,255,255)" stroke="rgb(255,255,255)" stroke-width="1" opacity="0.9333333333333333" d="M 113.5 50 L 113.5 51 L 113.5 50 Z " /><path fill="rgb(255,255,255)" stroke="rgb(255,255,255)" stroke-width="1" opacity="0.9333333333333333" d="M 116.5 50 L 116.5 51 L 116.5 50 Z " /><path fill="rgb(255,255,255)" stroke="rgb(255,255,255)" stroke-width="1" opacity="0.9333333333333333" d="M 15.5 51 L 15.5 52 L 15.5 51 Z " /><path fill="rgb(255,255,255)" stroke="rgb(255,255,255)" stroke-width="1" opacity="0.9333333333333333" d="M 91.5 51 L 91.5 52 L 91.5 51 Z " /><path fill="rgb(255,255,255)" stroke="rgb(255,255,255)" stroke-width="1" opacity="0.25882352941176473" d="M 21.5 14 L 21.5 15 L 21.5 14 Z " /><path fill="rgb(255,255,255)" stroke="rgb(255,255,255)" stroke-width="1" opacity="0.25882352941176473" d="M 23.5 14 L 23.5 15 L 23.5 14 Z " /><path fill="rgb(255,255,255)" stroke="rgb(255,255,255)" stroke-width="1" opacity="0.25882352941176473" d="M 26.5 14 L 28 14.5 L 26.5 15 L 26.5 14 Z " /><path fill="rgb(255,255,255)" stroke="rgb(255,255,255)" stroke-width="1" opacity="0.25882352941176473" d="M 36.5 14 L 36.5 15 L 36.5 14 Z " /><path fill="rgb(255,255,255)" stroke="rgb(255,255,255)" stroke-width="1" opacity="0.25882352941176473" d="M 35.5 16 L 35.5 17 L 35.5 16 Z " /><path fill="rgb(255,255,255)" stroke="rgb(255,255,255)" stroke-width="1" opacity="0.25882352941176473" d="M 59.5 23 L 60 24.5 L 59 24.5 L 59.5 23 Z " /><path fill="rgb(255,255,255)" stroke="rgb(255,255,255)" stroke-width="1" opacity="0.25882352941176473" d="M 56.5 25 L 57 28.5 L 56 28.5 L 56.5 25 Z " /><path fill="rgb(255,255,255)" stroke="rgb(255,255,255)" stroke-width="1" opacity="0.25882352941176473" d="M 59.5 27 L 60 28.5 L 59 28.5 L 59.5 27 Z " /><path fill="rgb(255,255,255)" stroke="rgb(255,255,255)" stroke-width="1" opacity="0.25882352941176473" d="M 63.5 27 L 63.5 28 L 63.5 27 Z " /><path fill="rgb(255,255,255)" stroke="rgb(255,255,255)" stroke-width="1" opacity="0.25882352941176473" d="M 12.5 31 L 12.5 32 L 12.5 31 Z " /><path fill="rgb(255,255,255)" stroke="rgb(255,255,255)" stroke-width="1" opacity="0.25882352941176473" d="M 15.5 31 L 15.5 32 L 15.5 31 Z " /><path fill="rgb(255,255,255)" stroke="rgb(255,255,255)" stroke-width="1" opacity="0.25882352941176473" d="M 44.5 31 L 44.5 32 L 44.5 31 Z " /><path fill="rgb(255,255,255)" stroke="rgb(255,255,255)" stroke-width="1" opacity="0.25882352941176473" d="M 51.5 31 L 51.5 32 L 51.5 31 Z " /><path fill="rgb(255,255,255)" stroke="rgb(255,255,255)" stroke-width="1" opacity="0.25882352941176473" d="M 57.5 31 L 57.5 32 L 57.5 31 Z " /><path fill="rgb(255,255,255)" stroke="rgb(255,255,255)" stroke-width="1" opacity="0.25882352941176473" d="M 68.5 31 L 68.5 32 L 68.5 31 Z " /><path fill="rgb(255,255,255)" stroke="rgb(255,255,255)" stroke-width="1" opacity="0.25882352941176473" d="M 93.5 31 L 93.5 32 L 93.5 31 Z " /><path fill="rgb(255,255,255)" stroke="rgb(255,255,255)" stroke-width="1" opacity="0.25882352941176473" d="M 95.5 31 L 95.5 32 L 95.5 31 Z " /><path fill="rgb(255,255,255)" stroke="rgb(255,255,255)" stroke-width="1" opacity="0.25882352941176473" d="M 117.5 31 L 117.5 32 L 117.5 31 Z " /><path fill="rgb(255,255,255)" stroke="rgb(255,255,255)" stroke-width="1" opacity="0.25882352941176473" d="M 22.5 33 L 22.5 34 L 22.5 33 Z " /><path fill="rgb(255,255,255)" stroke="rgb(255,255,255)" stroke-width="1" opacity="0.25882352941176473" d="M 73.5 33 L 73.5 34 L 73.5 33 Z " /><path fill="rgb(255,255,255)" stroke="rgb(255,255,255)" stroke-width="1" opacity="0.25882352941176473" d="M 106.5 34 L 106.5 35 L 106.5 34 Z " /><path fill="rgb(255,255,255)" stroke="rgb(255,255,255)" stroke-width="1" opacity="0.25882352941176473" d="M 74.5 36 L 74.5 37 L 74.5 36 Z " /><path fill="rgb(255,255,255)" stroke="rgb(255,255,255)" stroke-width="1" opacity="0.25882352941176473" d="M 14.5 38 L 14.5 39 L 14.5 38 Z " /><path fill="rgb(255,255,255)" stroke="rgb(255,255,255)" stroke-width="1" opacity="0.25882352941176473" d="M 30.5 39 L 30.5 40 L 30.5 39 Z " /><path fill="rgb(255,255,255)" stroke="rgb(255,255,255)" stroke-width="1" opacity="0.25882352941176473" d="M 93.5 39 L 93.5 40 L 93.5 39 Z " /><path fill="rgb(255,255,255)" stroke="rgb(255,255,255)" stroke-width="1" opacity="0.25882352941176473" d="M 66.5 43 L 66.5 44 L 66.5 43 Z " /><path fill="rgb(255,255,255)" stroke="rgb(255,255,255)" stroke-width="1" opacity="0.25882352941176473" d="M 104.5 43 L 104.5 44 L 104.5 43 Z " /><path fill="rgb(255,255,255)" stroke="rgb(255,255,255)" stroke-width="1" opacity="0.25882352941176473" d="M 73.5 45 L 73.5 46 L 73.5 45 Z " /><path fill="rgb(255,255,255)" stroke="rgb(255,255,255)" stroke-width="1" opacity="0.25882352941176473" d="M 93.5 46 L 93.5 47 L 93.5 46 Z " /><path fill="rgb(255,255,255)" stroke="rgb(255,255,255)" stroke-width="1" opacity="0.25882352941176473" d="M 13.5 47 L 13.5 48 L 13.5 47 Z " /><path fill="rgb(255,255,255)" stroke="rgb(255,255,255)" stroke-width="1" opacity="0.25882352941176473" d="M 112.5 49 L 112.5 50 L 112.5 49 Z " /><path fill="rgb(255,255,255)" stroke="rgb(255,255,255)" stroke-width="1" opacity="0.25882352941176473" d="M 14.5 50 L 14.5 51 L 14.5 50 Z " /><path fill="rgb(255,255,255)" stroke="rgb(255,255,255)" stroke-width="1" opacity="0.25882352941176473" d="M 117.5 51 L 117.5 52 L 117.5 51 Z " /><path fill="rgb(255,255,255)" stroke="rgb(255,255,255)" stroke-width="1" opacity="0.25882352941176473" d="M 91.5 52 L 91.5 53 L 91.5 52 Z " /><path fill="rgb(0,0,0)" stroke="rgb(0,0,0)" stroke-width="1" opacity="0" d="M 22.5 14 L 23 16.5 L 22 16.5 L 22.5 14 Z " /><path fill="rgb(0,0,0)" stroke="rgb(0,0,0)" stroke-width="1" opacity="0" d="M 34.5 14 Q 36.75 13.25 36 15.5 L 35.5 16 Q 33 15 34.5 14 Z " /><path fill="rgb(0,0,0)" stroke="rgb(0,0,0)" stroke-width="1" opacity="0" d="M 43 14 L 45 14.5 L 44 15.5 L 43.5 27 L 43 24 Q 38.88 25.33 40 22 Q 44.5 23.5 43 19 Q 38.88 20.33 40 17 Q 44.5 18.5 43 14 Z " /><path fill="rgb(0,0,0)" stroke="rgb(0,0,0)" stroke-width="1" opacity="0" d="M 31.5 17 L 32 23.5 L 31 23.5 L 31.5 17 Z " /><path fill="rgb(0,0,0)" stroke="rgb(0,0,0)" stroke-width="1" opacity="0" d="M 48.5 17 L 49 19.5 L 48 19.5 L 48.5 17 Z " /><path fill="rgb(0,0,0)" stroke="rgb(0,0,0)" stroke-width="1" opacity="0" d="M 21.5 23 L 23 27 L 21 27 L 21.5 23 Z " /><path fill="rgb(0,0,0)" stroke="rgb(0,0,0)" stroke-width="1" opacity="0" d="M 48.5 25 L 49 26.5 L 48 26.5 L 48.5 25 Z " /><path fill="rgb(0,0,0)" stroke="rgb(0,0,0)" stroke-width="1" opacity="0" d="M 54.5 25 L 55 28.5 L 54 28.5 L 54.5 25 Z " /><path fill="rgb(0,0,0)" stroke="rgb(0,0,0)" stroke-width="1" opacity="0" d="M 57.5 25 L 58 28.5 L 57 28.5 L 57.5 25 Z " /><path fill="rgb(0,0,0)" stroke="rgb(0,0,0)" stroke-width="1" opacity="0" d="M 35.5 26 L 35.5 27 L 35.5 26 Z " /><path fill="rgb(0,0,0)" stroke="rgb(0,0,0)" stroke-width="1" opacity="0" d="M 64.5 27 L 64.5 28 L 64.5 27 Z " /><path fill="rgb(0,0,0)" stroke="rgb(0,0,0)" stroke-width="1" opacity="0" d="M 6 31 L 8 31.5 L 8 53 L 6 52.5 L 6 38 L 2.5 38 L 2.5 37 L 6 37 L 6 31 Z " /><path fill="rgb(0,0,0)" stroke="rgb(0,0,0)" stroke-width="1" opacity="0" d="M 13 31 L 15 31.5 L 15 37.5 L 14 37.5 L 13 31 Z " /><path fill="rgb(0,0,0)" stroke="rgb(0,0,0)" stroke-width="1" opacity="0" d="M 20 31 L 24 31.5 L 22 33.5 L 22 53 L 20 52.5 L 20 31 Z " /><path fill="rgb(0,0,0)" stroke="rgb(0,0,0)" stroke-width="1" opacity="0" d="M 31 31 L 33 31.5 L 33 53 L 26 53 L 26 44 L 31 44 L 31 39 L 26 39 L 26 36 L 31 36 L 31 31 Z " /><path fill="rgb(0,0,0)" stroke="rgb(0,0,0)" stroke-width="1" opacity="0" d="M 37 31 L 43.5 31 L 44 31.5 L 44 52.5 L 43 52.5 L 43 49 L 37.5 49 L 37 48.5 L 37 31 Z " /><path fill="rgb(0,0,0)" stroke="rgb(0,0,0)" stroke-width="1" opacity="0" d="M 49 31 L 51 31.5 L 51 49 L 49 48.5 L 49 31 Z " /><path fill="rgb(0,0,0)" stroke="rgb(0,0,0)" stroke-width="1" opacity="0" d="M 56.5 31 L 57 52.5 L 56 52.5 L 56.5 31 Z " /><path fill="rgb(0,0,0)" stroke="rgb(0,0,0)" stroke-width="1" opacity="0" d="M 67.5 31 L 68 52.5 L 67 52.5 L 67 49 L 62 49 L 62 44 L 67 44 L 67 39 L 62 39 L 62 36 L 67 36 L 67.5 31 Z " /><path fill="rgb(0,0,0)" stroke="rgb(0,0,0)" stroke-width="1" opacity="0" d="M 73 31 L 76 31 L 76 39.5 L 75 39.5 L 75 36.5 L 73 31 Z " /><path fill="rgb(0,0,0)" stroke="rgb(0,0,0)" stroke-width="1" opacity="0" d="M 80 31 L 84 31 L 84 32.5 L 82 34.5 L 82 53 L 80 52.5 L 80 31 Z " /><path fill="rgb(0,0,0)" stroke="rgb(0,0,0)" stroke-width="1" opacity="0" d="M 94.5 31 L 95 53 L 92 52.5 Q 95.25 51.05 94 46 L 89 46 Q 90.33 50.13 87 49 L 87 36.5 L 89 36 L 89 40 L 94 40 L 94.5 31 Z " /><path fill="rgb(0,0,0)" stroke="rgb(0,0,0)" stroke-width="1" opacity="0" d="M 105 31 L 109 31.5 L 106 34.5 L 105.5 53 L 105 49 L 100 49 L 100 44 L 105 44 L 105 39 L 100 39 L 100 36 L 105 36 L 105 31 Z " /><path fill="rgb(0,0,0)" stroke="rgb(0,0,0)" stroke-width="1" opacity="0" d="M 111 36 L 113 36 L 113 41 L 111 41 L 111 36 Z " /><path fill="rgb(0,0,0)" stroke="rgb(0,0,0)" stroke-width="1" opacity="0" d="M 12.5 45 L 15 53 L 12 53 L 12.5 45 Z " /><path fill="rgb(0,0,0)" stroke="rgb(0,0,0)" stroke-width="1" opacity="0" d="M 73.5 46 L 75 49.5 L 75 53 L 73 52.5 L 73.5 46 Z " /><path fill="rgb(0,0,0)" stroke="rgb(0,0,0)" stroke-width="1" opacity="0" d="M 111.5 47 L 113 53 L 111 53 L 111.5 47 Z " /><path fill="rgb(255,255,255)" stroke="rgb(255,255,255)" stroke-width="1" opacity="1" d="M 10 15 L 12 15 L 12 24.5 L 14 25 L 14 15.5 L 16 15 L 16 27 L 10 27 L 10 15 Z " /><path fill="rgb(255,255,255)" stroke="rgb(255,255,255)" stroke-width="1" opacity="1" d="M 19 15 Q 21.67 13.88 21 16.5 L 23.5 22 L 24 15 L 26 15.5 L 26 27 Q 23.33 28.13 24 25.5 L 21.5 20 L 21 27 L 19 26.5 L 19 15 Z " /><path fill="rgb(255,255,255)" stroke="rgb(255,255,255)" stroke-width="1" opacity="1" d="M 28 15 L 33.5 15 L 35 16.5 L 35 24.5 L 32.5 27 L 28 27 L 28 15 Z M 30 16 L 30 25 L 33 25 L 33 16 L 30 16 Z " /><path fill="rgb(255,255,255)" stroke="rgb(255,255,255)" stroke-width="1" opacity="1" d="M 37 15 L 43 15.5 L 39 16 L 39 20 L 41.5 20 L 41.5 21 L 39 21 L 39 25 L 43 25 L 43 27 L 37 27 L 37 15 Z " /><path fill="rgb(255,255,255)" stroke="rgb(255,255,255)" stroke-width="1" opacity="1" d="M 46.5 15 L 52 15 L 52 22 Q 49.33 20.88 50 23.5 L 52 26.5 L 50 27 L 49 22 L 47 22 L 47 27 L 45 27 L 45 16.5 L 46.5 15 Z M 47 16 L 47 20 L 50 20 L 50 16 L 47 16 Z " /><path fill="rgb(255,255,255)" stroke="rgb(255,255,255)" stroke-width="1" opacity="1" d="M 3 32 L 6 32 L 6 36 L 3 36 L 3 32 Z " /><path fill="rgb(255,255,255)" stroke="rgb(255,255,255)" stroke-width="1" opacity="1" d="M 9 32 L 12 32 L 12 33.5 L 15.5 44 L 16 32 Q 18.96 31.63 19 32.5 L 19 53 L 16 53 L 16 51.5 L 13 44.5 L 13 41 L 11 41 L 11 52.5 L 9 53 L 9 32 Z " /><path fill="rgb(255,255,255)" stroke="rgb(255,255,255)" stroke-width="1" opacity="1" d="M 24 32 L 31 32 L 31 35 L 26 35 L 26 40 L 30 40 L 30 43 L 26 43 L 26 52.5 Q 25.96 53.38 23 53 L 23 34.5 L 24 32 Z " /><path fill="rgb(255,255,255)" stroke="rgb(255,255,255)" stroke-width="1" opacity="1" d="M 34 32 Q 36.96 31.63 37 32.5 L 37 49 L 42 49 L 42 53 L 34 53 L 34 32 Z " /><path fill="rgb(255,255,255)" stroke="rgb(255,255,255)" stroke-width="1" opacity="1" d="M 45 32 Q 47.96 31.63 48 32.5 L 48 49 L 52 49 L 52 32.5 Q 52.04 31.63 55 32 L 55 53 L 45 53 L 45 32 Z " /><path fill="rgb(255,255,255)" stroke="rgb(255,255,255)" stroke-width="1" opacity="1" d="M 58 32 L 66 32 L 66 35 L 61 35 L 61 40 L 66 40 L 66 43 L 61 43 L 61 49 L 66 49 L 66 53 L 58 53 L 58 32 Z " /><path fill="rgb(255,255,255)" stroke="rgb(255,255,255)" stroke-width="1" opacity="1" d="M 69 32 Q 72 31.25 73 33.5 L 75 39.5 L 75 42.5 L 76.5 44 L 77 32 Q 79.96 31.63 80 32.5 L 80 53 L 76 53 L 76 49.5 L 72.5 41 L 72 53 Q 69.04 53.38 69 52.5 L 69 32 Z " /><path fill="rgb(255,255,255)" stroke="rgb(255,255,255)" stroke-width="1" opacity="1" d="M 85.5 32 L 93 32 L 93 39 L 90 39 L 90 35 L 86 35 L 86 48.5 Q 86.12 49.5 90 49 Q 88.88 45.67 93 47 L 93 49.5 Q 90.5 50.5 91 53 L 83 53 L 83 34.5 L 85.5 32 Z " /><path fill="rgb(255,255,255)" stroke="rgb(255,255,255)" stroke-width="1" opacity="1" d="M 96 32 L 104 32 L 104 35 L 99 35 L 99 40 L 104 40 L 104 43 L 99 43 L 99 49 L 104 49 L 104 53 L 96 53 L 96 32 Z " /><path fill="rgb(255,255,255)" stroke="rgb(255,255,255)" stroke-width="1" opacity="1" d="M 109.5 32 L 117 32 L 117 45 Q 114 43.75 115 47.5 L 117 53 Q 112.87 54.67 114 50.5 L 112 45 L 110 45.5 L 110 53 L 107 53 L 107 34.5 L 109.5 32 Z M 110 35 L 110 41 L 114 41 L 114 35 L 110 35 Z " /><path fill="rgb(255,255,255)" stroke="rgb(255,255,255)" stroke-width="1" opacity="1" d="M 3 38 Q 5.96 37.63 6 38.5 L 6 53 Q 3.04 53.38 3 52.5 L 3 38 Z " /><path fill="rgb(255,255,255)" stroke="rgb(255,255,255)" stroke-width="1" opacity="0.26666666666666666" d="M 23.5 15 L 24 19.5 L 23 19.5 L 22 17.5 L 23.5 15 Z " /><path fill="rgb(255,255,255)" stroke="rgb(255,255,255)" stroke-width="1" opacity="0.26666666666666666" d="M 26 15 L 28 15.5 L 28 27 L 26 26.5 L 26 15 Z " /><path fill="rgb(255,255,255)" stroke="rgb(255,255,255)" stroke-width="1" opacity="0.26666666666666666" d="M 36.5 15 L 37 26.5 L 36 26.5 Q 33.83 23.67 35 17.5 L 36.5 15 Z " /><path fill="rgb(255,255,255)" stroke="rgb(255,255,255)" stroke-width="1" opacity="0.26666666666666666" d="M 47.5 17 L 48 19.5 L 47 19.5 L 47.5 17 Z " /><path fill="rgb(255,255,255)" stroke="rgb(255,255,255)" stroke-width="1" opacity="0.26666666666666666" d="M 51.5 22 L 51.5 23 L 51.5 22 Z " /><path fill="rgb(255,255,255)" stroke="rgb(255,255,255)" stroke-width="1" opacity="0.26666666666666666" d="M 47.5 23 Q 50.25 24.25 48 25.5 L 47.5 27 L 47.5 23 Z " /><path fill="rgb(255,255,255)" stroke="rgb(255,255,255)" stroke-width="1" opacity="0.26666666666666666" d="M 61.5 23 L 61.5 24 L 61.5 23 Z " /><path fill="rgb(255,255,255)" stroke="rgb(255,255,255)" stroke-width="1" opacity="0.26666666666666666" d="M 64.5 23 L 65 26.5 L 64 26.5 L 64.5 23 Z " /><path fill="rgb(255,255,255)" stroke="rgb(255,255,255)" stroke-width="1" opacity="0.26666666666666666" d="M 22.5 24 L 22.5 25 L 22.5 24 Z " /><path fill="rgb(255,255,255)" stroke="rgb(255,255,255)" stroke-width="1" opacity="0.26666666666666666" d="M 15.5 32 L 16 41.5 L 15 41.5 L 15.5 32 Z " /><path fill="rgb(255,255,255)" stroke="rgb(255,255,255)" stroke-width="1" opacity="0.26666666666666666" d="M 23.5 32 L 23.5 33 L 23.5 32 Z " /><path fill="rgb(255,255,255)" stroke="rgb(255,255,255)" stroke-width="1" opacity="0.26666666666666666" d="M 44.5 32 L 45 52.5 L 44 52.5 L 44.5 32 Z " /><path fill="rgb(255,255,255)" stroke="rgb(255,255,255)" stroke-width="1" opacity="0.26666666666666666" d="M 51.5 32 L 52 48.5 L 51 48.5 L 51.5 32 Z " /><path fill="rgb(255,255,255)" stroke="rgb(255,255,255)" stroke-width="1" opacity="0.26666666666666666" d="M 57.5 32 L 58 52.5 L 57 52.5 L 57.5 32 Z " /><path fill="rgb(255,255,255)" stroke="rgb(255,255,255)" stroke-width="1" opacity="0.26666666666666666" d="M 68.5 32 L 69 52.5 L 68 52.5 L 68.5 32 Z " /><path fill="rgb(255,255,255)" stroke="rgb(255,255,255)" stroke-width="1" opacity="0.26666666666666666" d="M 93.5 32 L 94 38.5 L 93 38.5 L 93.5 32 Z " /><path fill="rgb(255,255,255)" stroke="rgb(255,255,255)" stroke-width="1" opacity="0.26666666666666666" d="M 95.5 32 L 96 52.5 L 95 52.5 L 95.5 32 Z " /><path fill="rgb(255,255,255)" stroke="rgb(255,255,255)" stroke-width="1" opacity="0.26666666666666666" d="M 117.5 32 L 118 44.5 L 117 44.5 L 117.5 32 Z " /><path fill="rgb(255,255,255)" stroke="rgb(255,255,255)" stroke-width="1" opacity="0.26666666666666666" d="M 82.5 34 L 83 52.5 L 82 52.5 L 82.5 34 Z " /><path fill="rgb(255,255,255)" stroke="rgb(255,255,255)" stroke-width="1" opacity="0.26666666666666666" d="M 13.5 35 L 13.5 36 L 13.5 35 Z " /><path fill="rgb(255,255,255)" stroke="rgb(255,255,255)" stroke-width="1" opacity="0.26666666666666666" d="M 66.5 35 L 66.5 36 L 66.5 35 Z " /><path fill="rgb(255,255,255)" stroke="rgb(255,255,255)" stroke-width="1" opacity="0.26666666666666666" d="M 104.5 35 L 104.5 36 L 104.5 35 Z " /><path fill="rgb(255,255,255)" stroke="rgb(255,255,255)" stroke-width="1" opacity="0.26666666666666666" d="M 106.5 35 L 107 52.5 L 106 52.5 L 106.5 35 Z " /><path fill="rgb(255,255,255)" stroke="rgb(255,255,255)" stroke-width="1" opacity="0.26666666666666666" d="M 26.5 39 L 30 39.5 L 26.5 40 L 26.5 39 Z " /><path fill="rgb(255,255,255)" stroke="rgb(255,255,255)" stroke-width="1" opacity="0.26666666666666666" d="M 62.5 39 Q 66.25 38.25 67 40.5 L 66.5 43 L 66 40 L 62.5 40 L 62.5 39 Z " /><path fill="rgb(255,255,255)" stroke="rgb(255,255,255)" stroke-width="1" opacity="0.26666666666666666" d="M 89.5 39 L 89.5 40 L 89.5 39 Z " /><path fill="rgb(255,255,255)" stroke="rgb(255,255,255)" stroke-width="1" opacity="0.26666666666666666" d="M 100.5 39 Q 104.25 38.25 105 40.5 L 104.5 43 L 104 40 L 100.5 40 L 100.5 39 Z " /><path fill="rgb(255,255,255)" stroke="rgb(255,255,255)" stroke-width="1" opacity="0.26666666666666666" d="M 75.5 40 L 75.5 41 L 75.5 40 Z " /><path fill="rgb(255,255,255)" stroke="rgb(255,255,255)" stroke-width="1" opacity="0.26666666666666666" d="M 12.5 43 L 12.5 44 L 12.5 43 Z " /><path fill="rgb(255,255,255)" stroke="rgb(255,255,255)" stroke-width="1" opacity="0.26666666666666666" d="M 72.5 43 L 73 52.5 L 72 52.5 L 72.5 43 Z " /><path fill="rgb(255,255,255)" stroke="rgb(255,255,255)" stroke-width="1" opacity="0.26666666666666666" d="M 115.5 45 L 115.5 46 L 115.5 45 Z " /><path fill="rgb(255,255,255)" stroke="rgb(255,255,255)" stroke-width="1" opacity="0.26666666666666666" d="M 93.5 47 L 94 49.5 L 93 49.5 L 93.5 47 Z " /><path fill="rgb(255,255,255)" stroke="rgb(255,255,255)" stroke-width="1" opacity="0.26666666666666666" d="M 74.5 48 L 74.5 49 L 74.5 48 Z " /><path fill="rgb(255,255,255)" stroke="rgb(255,255,255)" stroke-width="1" opacity="0.26666666666666666" d="M 116.5 48 L 116.5 49 L 116.5 48 Z " /><path fill="rgb(255,255,255)" stroke="rgb(255,255,255)" stroke-width="1" opacity="0.5882352941176471" d="M 9.5 14 L 9.5 15 L 9.5 14 Z " /><path fill="rgb(255,255,255)" stroke="rgb(255,255,255)" stroke-width="1" opacity="0.5882352941176471" d="M 16.5 14 L 16.5 15 L 16.5 14 Z " /><path fill="rgb(255,255,255)" stroke="rgb(255,255,255)" stroke-width="1" opacity="0.5882352941176471" d="M 46.5 14 L 46.5 15 L 46.5 14 Z " /><path fill="rgb(255,255,255)" stroke="rgb(255,255,255)" stroke-width="1" opacity="0.5882352941176471" d="M 21.5 15 L 21.5 16 L 21.5 15 Z " /><path fill="rgb(255,255,255)" stroke="rgb(255,255,255)" stroke-width="1" opacity="0.5882352941176471" d="M 22.5 18 L 22.5 19 L 22.5 18 Z " /><path fill="rgb(255,255,255)" stroke="rgb(255,255,255)" stroke-width="1" opacity="0.5882352941176471" d="M 42.5 19 L 42.5 20 L 42.5 19 Z " /><path fill="rgb(255,255,255)" stroke="rgb(255,255,255)" stroke-width="1" opacity="0.5882352941176471" d="M 21.5 20 L 21.5 21 L 21.5 20 Z " /><path fill="rgb(255,255,255)" stroke="rgb(255,255,255)" stroke-width="1" opacity="0.5882352941176471" d="M 23.5 20 L 23.5 21 L 23.5 20 Z " /><path fill="rgb(255,255,255)" stroke="rgb(255,255,255)" stroke-width="1" opacity="0.5882352941176471" d="M 22.5 23 L 22.5 24 L 22.5 23 Z " /><path fill="rgb(255,255,255)" stroke="rgb(255,255,255)" stroke-width="1" opacity="0.5882352941176471" d="M 48.5 23 L 48.5 24 L 48.5 23 Z " /><path fill="rgb(255,255,255)" stroke="rgb(255,255,255)" stroke-width="1" opacity="0.5882352941176471" d="M 58.5 23 L 58.5 24 L 58.5 23 Z " /><path fill="rgb(255,255,255)" stroke="rgb(255,255,255)" stroke-width="1" opacity="0.5882352941176471" d="M 60.5 24 L 60.5 25 L 60.5 24 Z " /><path fill="rgb(255,255,255)" stroke="rgb(255,255,255)" stroke-width="1" opacity="0.5882352941176471" d="M 51.5 25 L 51.5 26 L 51.5 25 Z " /><path fill="rgb(255,255,255)" stroke="rgb(255,255,255)" stroke-width="1" opacity="0.5882352941176471" d="M 23.5 26 L 23.5 27 L 23.5 26 Z " /><path fill="rgb(255,255,255)" stroke="rgb(255,255,255)" stroke-width="1" opacity="0.5882352941176471" d="M 49.5 26 L 49.5 27 L 49.5 26 Z " /><path fill="rgb(255,255,255)" stroke="rgb(255,255,255)" stroke-width="1" opacity="0.5882352941176471" d="M 60.5 27 L 61 28.5 L 60 28.5 L 60.5 27 Z " /><path fill="rgb(255,255,255)" stroke="rgb(255,255,255)" stroke-width="1" opacity="0.5882352941176471" d="M 64.5 28 L 64.5 29 L 64.5 28 Z " /><path fill="rgb(255,255,255)" stroke="rgb(255,255,255)" stroke-width="1" opacity="0.5882352941176471" d="M 2.5 31 L 2.5 32 L 2.5 31 Z " /><path fill="rgb(255,255,255)" stroke="rgb(255,255,255)" stroke-width="1" opacity="0.5882352941176471" d="M 8.5 31 L 8.5 32 L 8.5 31 Z " /><path fill="rgb(255,255,255)" stroke="rgb(255,255,255)" stroke-width="1" opacity="0.5882352941176471" d="M 33.5 31 L 33.5 32 L 33.5 31 Z " /><path fill="rgb(255,255,255)" stroke="rgb(255,255,255)" stroke-width="1" opacity="0.5882352941176471" d="M 76.5 31 L 76.5 32 L 76.5 31 Z " /><path fill="rgb(255,255,255)" stroke="rgb(255,255,255)" stroke-width="1" opacity="0.5882352941176471" d="M 85.5 31 L 86 31.5 L 83.5 34 L 83 33.5 L 85.5 31 Z " /><path fill="rgb(255,255,255)" stroke="rgb(255,255,255)" stroke-width="1" opacity="0.5882352941176471" d="M 109.5 31 L 110 31.5 L 107.5 34 L 107 33.5 L 109.5 31 Z " /><path fill="rgb(255,255,255)" stroke="rgb(255,255,255)" stroke-width="1" opacity="0.5882352941176471" d="M 12.5 33 L 12.5 34 L 12.5 33 Z " /><path fill="rgb(255,255,255)" stroke="rgb(255,255,255)" stroke-width="1" opacity="0.5882352941176471" d="M 13.5 36 L 13.5 37 L 13.5 36 Z " /><path fill="rgb(255,255,255)" stroke="rgb(255,255,255)" stroke-width="1" opacity="0.5882352941176471" d="M 74.5 38 L 74.5 39 L 74.5 38 Z " /><path fill="rgb(255,255,255)" stroke="rgb(255,255,255)" stroke-width="1" opacity="0.5882352941176471" d="M 61.5 39 L 61.5 40 L 61.5 39 Z " /><path fill="rgb(255,255,255)" stroke="rgb(255,255,255)" stroke-width="1" opacity="0.5882352941176471" d="M 99.5 39 L 99.5 40 L 99.5 39 Z " /><path fill="rgb(255,255,255)" stroke="rgb(255,255,255)" stroke-width="1" opacity="0.5882352941176471" d="M 72.5 41 L 72.5 42 L 72.5 41 Z " /><path fill="rgb(255,255,255)" stroke="rgb(255,255,255)" stroke-width="1" opacity="0.5882352941176471" d="M 75.5 41 L 75.5 42 L 75.5 41 Z " /><path fill="rgb(255,255,255)" stroke="rgb(255,255,255)" stroke-width="1" opacity="0.5882352941176471" d="M 12.5 42 L 12.5 43 L 12.5 42 Z " /><path fill="rgb(255,255,255)" stroke="rgb(255,255,255)" stroke-width="1" opacity="0.5882352941176471" d="M 15.5 42 L 15.5 43 L 15.5 42 Z " /><path fill="rgb(255,255,255)" stroke="rgb(255,255,255)" stroke-width="1" opacity="0.5882352941176471" d="M 73.5 44 L 73.5 45 L 73.5 44 Z " /><path fill="rgb(255,255,255)" stroke="rgb(255,255,255)" stroke-width="1" opacity="0.5882352941176471" d="M 13.5 45 L 13.5 46 L 13.5 45 Z " /><path fill="rgb(255,255,255)" stroke="rgb(255,255,255)" stroke-width="1" opacity="0.5882352941176471" d="M 115.5 46 L 115.5 47 L 115.5 46 Z " /><path fill="rgb(255,255,255)" stroke="rgb(255,255,255)" stroke-width="1" opacity="0.5882352941176471" d="M 74.5 47 L 74.5 48 L 74.5 47 Z " /><path fill="rgb(255,255,255)" stroke="rgb(255,255,255)" stroke-width="1" opacity="0.5882352941176471" d="M 116.5 49 L 116.5 50 L 116.5 49 Z " /><path fill="rgb(255,255,255)" stroke="rgb(255,255,255)" stroke-width="1" opacity="0.5882352941176471" d="M 75.5 50 L 75.5 51 L 75.5 50 Z " /><path fill="rgb(255,255,255)" stroke="rgb(255,255,255)" stroke-width="1" opacity="0.5882352941176471" d="M 113.5 51 L 113.5 52 L 113.5 51 Z " /><path fill="rgb(255,255,255)" stroke="rgb(255,255,255)" stroke-width="1" opacity="0.5882352941176471" d="M 15.5 52 L 15.5 53 L 15.5 52 Z " /><path fill="rgb(255,255,255)" stroke="rgb(255,255,255)" stroke-width="1" opacity="0.7450980392156863" d="M 10.5 14 L 12 14.5 L 10 15 L 9.5 27 L 9 15.5 L 10.5 14 Z " /><path fill="rgb(255,255,255)" stroke="rgb(255,255,255)" stroke-width="1" opacity="0.7450980392156863" d="M 14.5 14 L 17 15.5 L 16.5 27 L 16 15 L 14 14.5 L 14.5 14 Z " /><path fill="rgb(255,255,255)" stroke="rgb(255,255,255)" stroke-width="1" opacity="0.7450980392156863" d="M 19.5 14 L 21 14.5 L 19.5 15 L 19.5 14 Z " /><path fill="rgb(255,255,255)" stroke="rgb(255,255,255)" stroke-width="1" opacity="0.7450980392156863" d="M 24.5 14 L 26 14.5 L 24.5 15 L 24.5 14 Z " /><path fill="rgb(255,255,255)" stroke="rgb(255,255,255)" stroke-width="1" opacity="0.7450980392156863" d="M 28.5 14 L 33 14.5 L 28.5 15 L 28.5 14 Z " /><path fill="rgb(255,255,255)" stroke="rgb(255,255,255)" stroke-width="1" opacity="0.7450980392156863" d="M 37.5 14 L 43 14.5 L 37.5 15 L 37.5 14 Z " /><path fill="rgb(255,255,255)" stroke="rgb(255,255,255)" stroke-width="1" opacity="0.7450980392156863" d="M 47.5 14 L 52 14.5 L 47.5 15 L 47.5 14 Z " /><path fill="rgb(255,255,255)" stroke="rgb(255,255,255)" stroke-width="1" opacity="0.7450980392156863" d="M 45.5 15 L 45.5 16 L 45.5 15 Z " /><path fill="rgb(255,255,255)" stroke="rgb(255,255,255)" stroke-width="1" opacity="0.7450980392156863" d="M 31.5 16 L 31.5 17 L 31.5 16 Z " /><path fill="rgb(255,255,255)" stroke="rgb(255,255,255)" stroke-width="1" opacity="0.7450980392156863" d="M 40.5 16 L 43 16.5 L 40.5 17 L 40.5 16 Z " /><path fill="rgb(255,255,255)" stroke="rgb(255,255,255)" stroke-width="1" opacity="0.7450980392156863" d="M 47.5 16 L 50 17.5 L 49.5 20 L 49 17 L 47 16.5 L 47.5 16 Z " /><path fill="rgb(255,255,255)" stroke="rgb(255,255,255)" stroke-width="1" opacity="0.7450980392156863" d="M 40.5 19 L 43 20.5 L 41.5 20 Q 39.13 19.87 40.5 19 Z " /><path fill="rgb(255,255,255)" stroke="rgb(255,255,255)" stroke-width="1" opacity="0.7450980392156863" d="M 39.5 21 L 39.5 22 L 39.5 21 Z " /><path fill="rgb(255,255,255)" stroke="rgb(255,255,255)" stroke-width="1" opacity="0.7450980392156863" d="M 50.5 22 L 50.5 23 L 50.5 22 Z " /><path fill="rgb(255,255,255)" stroke="rgb(255,255,255)" stroke-width="1" opacity="0.7450980392156863" d="M 30.5 24 L 30.5 25 L 30.5 24 Z " /><path fill="rgb(255,255,255)" stroke="rgb(255,255,255)" stroke-width="1" opacity="0.7450980392156863" d="M 32.5 24 L 32.5 25 L 32.5 24 Z " /><path fill="rgb(255,255,255)" stroke="rgb(255,255,255)" stroke-width="1" opacity="0.7450980392156863" d="M 39.5 24 L 39.5 25 L 39.5 24 Z " /><path fill="rgb(255,255,255)" stroke="rgb(255,255,255)" stroke-width="1" opacity="0.7450980392156863" d="M 34.5 25 Q 36 26 33.5 27 Q 32 26 34.5 25 Z " /><path fill="rgb(255,255,255)" stroke="rgb(255,255,255)" stroke-width="1" opacity="0.7450980392156863" d="M 60.5 25 L 61 27 L 59 26.5 L 60.5 25 Z " /><path fill="rgb(255,255,255)" stroke="rgb(255,255,255)" stroke-width="1" opacity="0.7450980392156863" d="M 3.5 31 L 6 31.5 L 3 32 L 2.5 36 L 2 32.5 L 3.5 31 Z " /><path fill="rgb(255,255,255)" stroke="rgb(255,255,255)" stroke-width="1" opacity="0.7450980392156863" d="M 9.5 31 L 12 31.5 L 9 32 L 8.5 53 L 8 32.5 L 9.5 31 Z " /><path fill="rgb(255,255,255)" stroke="rgb(255,255,255)" stroke-width="1" opacity="0.7450980392156863" d="M 16.5 31 L 19 31.5 L 16.5 32 L 16.5 31 Z " /><path fill="rgb(255,255,255)" stroke="rgb(255,255,255)" stroke-width="1" opacity="0.7450980392156863" d="M 25.5 31 L 31 31.5 L 25.5 32 L 25.5 31 Z " /><path fill="rgb(255,255,255)" stroke="rgb(255,255,255)" stroke-width="1" opacity="0.7450980392156863" d="M 34.5 31 L 37 31.5 L 34 32 L 33.5 53 L 33 32.5 L 34.5 31 Z " /><path fill="rgb(255,255,255)" stroke="rgb(255,255,255)" stroke-width="1" opacity="0.7450980392156863" d="M 45.5 31 L 48 31.5 L 45.5 32 L 45.5 31 Z " /><path fill="rgb(255,255,255)" stroke="rgb(255,255,255)" stroke-width="1" opacity="0.7450980392156863" d="M 52.5 31 L 55 31.5 L 52.5 32 L 52.5 31 Z " /><path fill="rgb(255,255,255)" stroke="rgb(255,255,255)" stroke-width="1" opacity="0.7450980392156863" d="M 58.5 31 L 66 31.5 L 58.5 32 L 58.5 31 Z " /><path fill="rgb(255,255,255)" stroke="rgb(255,255,255)" stroke-width="1" opacity="0.7450980392156863" d="M 69.5 31 L 72 31.5 L 69.5 32 L 69.5 31 Z " /><path fill="rgb(255,255,255)" stroke="rgb(255,255,255)" stroke-width="1" opacity="0.7450980392156863" d="M 77.5 31 L 80 31.5 L 77 32 L 76.5 43 L 76 32.5 L 77.5 31 Z " /><path fill="rgb(255,255,255)" stroke="rgb(255,255,255)" stroke-width="1" opacity="0.7450980392156863" d="M 86.5 31 L 93 31.5 L 86.5 32 L 86.5 31 Z " /><path fill="rgb(255,255,255)" stroke="rgb(255,255,255)" stroke-width="1" opacity="0.7450980392156863" d="M 96.5 31 L 104 31.5 L 96.5 32 L 96.5 31 Z " /><path fill="rgb(255,255,255)" stroke="rgb(255,255,255)" stroke-width="1" opacity="0.7450980392156863" d="M 110.5 31 L 117 31.5 L 110.5 32 L 110.5 31 Z " /><path fill="rgb(255,255,255)" stroke="rgb(255,255,255)" stroke-width="1" opacity="0.7450980392156863" d="M 22.5 34 L 23 52.5 L 22 52.5 L 22.5 34 Z " /><path fill="rgb(255,255,255)" stroke="rgb(255,255,255)" stroke-width="1" opacity="0.7450980392156863" d="M 61.5 35 L 61.5 36 L 61.5 35 Z " /><path fill="rgb(255,255,255)" stroke="rgb(255,255,255)" stroke-width="1" opacity="0.7450980392156863" d="M 73.5 35 L 73.5 36 L 73.5 35 Z " /><path fill="rgb(255,255,255)" stroke="rgb(255,255,255)" stroke-width="1" opacity="0.7450980392156863" d="M 86.5 35 L 86.5 36 L 86.5 35 Z " /><path fill="rgb(255,255,255)" stroke="rgb(255,255,255)" stroke-width="1" opacity="0.7450980392156863" d="M 89.5 35 L 89.5 36 L 89.5 35 Z " /><path fill="rgb(255,255,255)" stroke="rgb(255,255,255)" stroke-width="1" opacity="0.7450980392156863" d="M 99.5 35 L 99.5 36 L 99.5 35 Z " /><path fill="rgb(255,255,255)" stroke="rgb(255,255,255)" stroke-width="1" opacity="0.7450980392156863" d="M 110.5 35 L 110.5 36 L 110.5 35 Z " /><path fill="rgb(255,255,255)" stroke="rgb(255,255,255)" stroke-width="1" opacity="0.7450980392156863" d="M 113.5 35 L 113.5 36 L 113.5 35 Z " /><path fill="rgb(255,255,255)" stroke="rgb(255,255,255)" stroke-width="1" opacity="0.7450980392156863" d="M 2.5 38 L 3 52.5 L 2 52.5 L 2.5 38 Z " /><path fill="rgb(255,255,255)" stroke="rgb(255,255,255)" stroke-width="1" opacity="0.7450980392156863" d="M 14.5 40 L 14.5 41 L 14.5 40 Z " /><path fill="rgb(255,255,255)" stroke="rgb(255,255,255)" stroke-width="1" opacity="0.7450980392156863" d="M 11.5 41 L 12 52.5 L 11 52.5 L 11.5 41 Z " /><path fill="rgb(255,255,255)" stroke="rgb(255,255,255)" stroke-width="1" opacity="0.7450980392156863" d="M 26.5 43 L 30 43.5 L 26.5 44 L 26.5 43 Z " /><path fill="rgb(255,255,255)" stroke="rgb(255,255,255)" stroke-width="1" opacity="0.7450980392156863" d="M 62.5 43 L 66 43.5 L 62.5 44 L 62.5 43 Z " /><path fill="rgb(255,255,255)" stroke="rgb(255,255,255)" stroke-width="1" opacity="0.7450980392156863" d="M 73.5 43 L 73.5 44 L 73.5 43 Z " /><path fill="rgb(255,255,255)" stroke="rgb(255,255,255)" stroke-width="1" opacity="0.7450980392156863" d="M 100.5 43 L 104 43.5 L 100.5 44 L 100.5 43 Z " /><path fill="rgb(255,255,255)" stroke="rgb(255,255,255)" stroke-width="1" opacity="0.7450980392156863" d="M 90.5 46 L 93 46.5 L 90.5 47 L 90.5 46 Z " /><path fill="rgb(255,255,255)" stroke="rgb(255,255,255)" stroke-width="1" opacity="0.7450980392156863" d="M 112.5 47 L 112.5 48 L 112.5 47 Z " /><path fill="rgb(255,255,255)" stroke="rgb(255,255,255)" stroke-width="1" opacity="0.7450980392156863" d="M 14.5 48 L 14.5 49 L 14.5 48 Z " /><path fill="rgb(255,255,255)" stroke="rgb(255,255,255)" stroke-width="1" opacity="0.7450980392156863" d="M 66.5 49 L 67 52.5 L 66 52.5 L 66.5 49 Z " /><path fill="rgb(255,255,255)" stroke="rgb(255,255,255)" stroke-width="1" opacity="0.7450980392156863" d="M 104.5 49 L 105 52.5 L 104 52.5 L 104.5 49 Z " /><path fill="rgb(255,255,255)" stroke="rgb(255,255,255)" stroke-width="1" opacity="0.7450980392156863" d="M 92.5 50 L 92.5 51 L 92.5 50 Z " /></svg>