<svg id="LIVE" xmlns="http://www.w3.org/2000/svg" viewBox="0 0 500 500"><g id="rectangle_dot4_live"><path d="M432.55981,178.79235H67.44011A17.45971,17.45971,0,0,0,50,196.23247V303.76785a17.45964,17.45964,0,0,0,17.44011,17.4398h365.1197A17.45971,17.45971,0,0,0,450,303.76785V196.23247A17.45978,17.45978,0,0,0,432.55981,178.79235Zm11.0395,124.9755a11.0517,11.0517,0,0,1-11.0395,11.03911H67.44011a11.05163,11.05163,0,0,1-11.03942-11.03911V196.23247A11.05191,11.05191,0,0,1,67.44011,185.193h365.1197a11.052,11.052,0,0,1,11.0395,11.03943Z" style="fill:#ff494b"/><polygon points="204.799 221.048 185.575 221.048 185.575 280.894 235.505 280.894 235.505 265.585 204.799 265.585 204.799 221.048" style="fill:#ff494b"/><rect x="244.46153" y="221.04777" width="19.2243" height="59.84643" style="fill:#ff494b"/><polygon points="305.35 261.061 305.002 261.061 292.998 221.048 272.47 221.048 293.694 280.894 315.963 280.894 337.1 221.048 317.441 221.048 305.35 261.061" style="fill:#ff494b"/><polygon points="364.324 257.408 392.16 257.408 392.16 243.664 364.324 243.664 364.324 235.4 396.857 235.4 396.857 221.048 345.1 221.048 345.1 280.894 397.466 280.894 397.466 266.542 364.324 266.542 364.324 257.408" style="fill:#ff494b"/><circle cx="132.45766" cy="249.02932" r="29.92314" style="fill:#ff494b"/></g></svg>